<svg version="1.1" xmlns="http://www.w3.org/2000/svg" xmlns:xlink="http://www.w3.org/1999/xlink" width="1024" height="1024" viewBox="-44.0628 19.7772 0.2009 0.2794"><g transform="scale(0.0001,-0.0001)"><path class="C3106200" d="M-439460 -197772l37 -230l294 32l238 -196l126 38l146 -149l-45 -294l-111 -114l-175 39l-109 -219l157 -2l201 -411l-447 -360l-249 -115l-324 -312l-252 -333l-38 -168l-175 23l90 138l-271 193l-211 313h0l-50 131l244 -58l262 155l4 203l-143 94l4 384l126 167l19 250h0l-55 266l12 -11h0l262 467l139 38l88 -102l206 143Z" centroide="-439595.21046719543,-199027.8434219251"></path></g></svg>